<svg width="16" height="16" viewBox="0 0 16 16" fill="none" xmlns="http://www.w3.org/2000/svg">
<path d="M14.1668 12.3134L13.0668 12.5734C12.8202 12.6334 12.6268 12.82 12.5735 13.0667L12.3402 14.0467C12.2135 14.58 11.5335 14.7467 11.1802 14.3267L9.18683 12.0334C9.02683 11.8467 9.11349 11.5534 9.35349 11.4934C10.5335 11.2067 11.5935 10.5467 12.3735 9.6067C12.5002 9.45337 12.7268 9.43337 12.8668 9.57337L14.3468 11.0534C14.8535 11.56 14.6735 12.1934 14.1668 12.3134Z" fill="#3A6DE5"/>
<path d="M1.79816 12.3134L2.89816 12.5734C3.14482 12.6334 3.33816 12.82 3.39149 13.0667L3.62482 14.0467C3.75149 14.58 4.43149 14.7467 4.78482 14.3267L6.77816 12.0334C6.93816 11.8467 6.85149 11.5534 6.61149 11.4934C5.43149 11.2067 4.37149 10.5467 3.59149 9.6067C3.46482 9.45337 3.23816 9.43337 3.09816 9.57337L1.61816 11.0534C1.11149 11.56 1.29149 12.1934 1.79816 12.3134Z" fill="#3A6DE5"/>
<path d="M7.9987 1.33337C5.4187 1.33337 3.33203 3.42004 3.33203 6.00004C3.33203 6.96671 3.6187 7.85337 4.11203 8.59337C4.83203 9.66004 5.97203 10.4134 7.2987 10.6067C7.52536 10.6467 7.7587 10.6667 7.9987 10.6667C8.2387 10.6667 8.47203 10.6467 8.6987 10.6067C10.0254 10.4134 11.1654 9.66004 11.8854 8.59337C12.3787 7.85337 12.6654 6.96671 12.6654 6.00004C12.6654 3.42004 10.5787 1.33337 7.9987 1.33337ZM10.0387 5.85337L9.48536 6.40671C9.39203 6.50004 9.3387 6.68004 9.37203 6.81337L9.53203 7.50004C9.6587 8.04004 9.37203 8.25337 8.89203 7.96671L8.22536 7.57337C8.10536 7.50004 7.90536 7.50004 7.78536 7.57337L7.1187 7.96671C6.6387 8.24671 6.35203 8.04004 6.4787 7.50004L6.6387 6.81337C6.66536 6.68671 6.6187 6.50004 6.52536 6.40671L5.9587 5.85337C5.63203 5.52671 5.7387 5.20004 6.19203 5.12671L6.90536 5.00671C7.02536 4.98671 7.16536 4.88004 7.2187 4.77337L7.61203 3.98671C7.82536 3.56004 8.17203 3.56004 8.38536 3.98671L8.7787 4.77337C8.83203 4.88004 8.97203 4.98671 9.0987 5.00671L9.81203 5.12671C10.2587 5.20004 10.3654 5.52671 10.0387 5.85337Z" fill="#3A6DE5"/>
</svg>
